<svg width="45" height="45" viewBox="0 0 45 45" fill="none" xmlns="http://www.w3.org/2000/svg">
<path d="M9.87622 43.205C10.4414 43.9487 11.5599 43.9488 12.1252 43.2052L20.2807 32.4769C20.9876 31.547 20.3244 30.2097 19.1562 30.2097H2.84753C1.67945 30.2097 1.01619 31.5468 1.72296 32.4768L9.87622 43.205Z" fill="white"/>
<path d="M24.1477 2.4663C23.5999 1.70141 22.4714 1.67584 21.8895 2.41515L11.8813 15.1303C11.4834 15.6359 11.4774 16.3464 11.8667 16.8586L22.0138 30.2095L31.8928 43.205C32.4581 43.9486 33.5767 43.9485 34.1419 43.2048L43.3875 31.0392C43.7624 30.5459 43.772 29.8659 43.4112 29.3621L24.1477 2.4663Z" fill="white"/>
</svg>
