<svg width="226" height="50" viewBox="0 0 226 50" fill="none" xmlns="http://www.w3.org/2000/svg">
<path d="M9.87622 45.205C10.4414 45.9487 11.5599 45.9488 12.1252 45.2051L20.2807 34.4769C20.9876 33.5469 20.3244 32.2096 19.1562 32.2096H2.84753C1.67945 32.2096 1.01619 33.5467 1.72296 34.4767L9.87622 45.205Z" fill="white"/>
<path d="M24.1477 4.46624C23.5999 3.70135 22.4714 3.67578 21.8895 4.41509L11.8813 17.1303C11.4834 17.6358 11.4774 18.3463 11.8667 18.8586L22.0138 32.2094L31.8928 45.2049C32.4581 45.9486 33.5767 45.9485 34.1419 45.2048L43.3875 33.0392C43.7624 32.5459 43.772 31.8658 43.4112 31.3621L24.1477 4.46624Z" fill="white"/>
<path d="M220.517 37.3327V0.000190735H226V37.3327H220.517Z" fill="white"/>
<path fill-rule="evenodd" clip-rule="evenodd" d="M197.93 36.1951C199.692 37.2835 201.649 37.8277 203.799 37.8277C205.354 37.8277 206.793 37.5427 208.114 36.9725C208.13 36.9656 208.146 36.9587 208.162 36.9518C208.946 35.1724 209.91 31.9523 210.678 29.1533C210.641 29.2205 210.602 29.2873 210.563 29.3536C209.941 30.442 209.099 31.3102 208.036 31.9581C206.974 32.6059 205.782 32.9299 204.46 32.9299C203.139 32.9299 201.947 32.6059 200.884 31.9581C199.822 31.3102 198.967 30.442 198.319 29.3536C197.697 28.2393 197.386 27.0213 197.386 25.6997C197.386 24.3521 197.697 23.1341 198.319 22.0457C198.967 20.9573 199.822 20.0891 200.884 19.4413C201.973 18.7675 203.165 18.4306 204.46 18.4306C205.782 18.4306 206.974 18.7675 208.036 19.4413C209.099 20.0891 209.941 20.9573 210.563 22.0457C211.211 23.1341 211.535 24.3521 211.535 25.6997C211.535 25.7719 211.534 25.8438 211.532 25.9153C211.533 25.9116 211.534 25.9079 211.535 25.9043L211.593 37.3613H216.394V14.0855C216.172 14.0855 215.937 14.0786 215.693 14.0715C214.519 14.0373 213.157 13.9975 212.321 14.6945C211.842 15.094 211.535 15.7356 211.535 16.7591C210.576 15.7484 209.436 14.971 208.114 14.4268C206.793 13.8567 205.354 13.5716 203.799 13.5716C201.649 13.5716 199.692 14.1158 197.93 15.2042C196.168 16.2926 194.755 17.7568 193.693 19.5968C192.656 21.4367 192.138 23.471 192.138 25.6997C192.138 27.9283 192.656 29.9626 193.693 31.8026C194.755 33.6166 196.168 35.0808 197.93 36.1951Z" fill="white"/>
<path d="M182.685 37.2771V18.4206H176.764V13.946H180.329H182.801V6.23751H188.057V13.946C188.057 13.946 189.647 13.946 190.665 13.946C193.696 13.946 193.274 18.4206 193.274 18.4206H188.174V37.2771H182.685Z" fill="white"/>
<path d="M169.877 37.3333V14.0004H175.36V37.3333H169.877Z" fill="white"/>
<path d="M133.343 37.3329V14.0001H136.084H138.826V37.3329H133.343Z" fill="white"/>
<path fill-rule="evenodd" clip-rule="evenodd" d="M110.794 36.166C112.557 37.2549 114.514 37.7993 116.666 37.7993C118.207 37.7993 119.634 37.5193 120.946 36.9592C121.736 35.2053 122.72 32.0024 123.502 29.2012C123.479 29.2416 123.456 29.2817 123.432 29.3218C122.81 30.4106 121.967 31.2791 120.904 31.9273C119.841 32.5754 118.649 32.8995 117.327 32.8995C116.005 32.8995 114.812 32.5754 113.749 31.9273C112.686 31.2791 111.831 30.4106 111.183 29.3218C110.56 28.207 110.249 26.9885 110.249 25.6663C110.249 24.3182 110.56 23.0997 111.183 22.0108C111.831 20.9219 112.686 20.0534 113.749 19.4053C114.838 18.7313 116.031 18.3942 117.327 18.3942C118.649 18.3942 119.841 18.7313 120.904 19.4053C121.967 20.0534 122.81 20.9219 123.432 22.0108C124.08 23.0997 124.404 24.3182 124.404 25.6663C124.404 25.8301 124.399 25.992 124.39 26.152L124.39 34.6637C124.395 34.659 124.399 34.6542 124.404 34.6494V37.3327H129.265V0.000190735H126.524H123.782V16.0998C122.849 15.2961 121.773 14.6739 120.554 14.2332C119.362 13.7665 118.066 13.5332 116.666 13.5332C114.514 13.5332 112.557 14.0777 110.794 15.1665C109.031 16.2554 107.618 17.7202 106.555 19.5609C105.518 21.4016 105 23.4367 105 25.6663C105 27.8959 105.518 29.931 106.555 31.7717C107.618 33.5865 109.031 35.0513 110.794 36.166Z" fill="white"/>
<path fill-rule="evenodd" clip-rule="evenodd" d="M147.713 48.8047C149.268 49.3491 150.953 49.6214 152.768 49.6214C155.049 49.6214 157.188 49.1417 159.184 48.1825C161.181 47.2233 162.775 45.8363 163.967 44.0215C165.186 42.2067 165.795 40.029 165.795 37.4883V13.9999H160.934V16.7221C159.975 15.711 158.834 14.9332 157.512 14.3888C156.19 13.8185 154.751 13.5333 153.196 13.5333C151.044 13.5333 149.087 14.0777 147.324 15.1666C145.561 16.2554 144.148 17.7202 143.085 19.5609C142.048 21.4016 141.53 23.4368 141.53 25.6663C141.53 27.8959 142.048 29.9311 143.085 31.7718C144.148 33.5865 145.561 35.0513 147.324 36.1661C149.087 37.255 151.044 37.7994 153.196 37.7994C154.694 37.7994 156.093 37.5257 157.392 36.9783C158.243 35.1295 159.322 31.8201 160.14 29.0037C160.084 29.1109 160.024 29.217 159.962 29.3218C159.34 30.4107 158.497 31.2792 157.434 31.9273C156.372 32.5754 155.179 32.8995 153.857 32.8995C152.535 32.8995 151.342 32.5754 150.279 31.9273C149.216 31.2792 148.361 30.4107 147.713 29.3218C147.09 28.207 146.779 26.9885 146.779 25.6663C146.779 24.3182 147.09 23.0997 147.713 22.0109C148.361 20.922 149.216 20.0535 150.279 19.4054C151.368 18.7313 152.561 18.3943 153.857 18.3943C155.179 18.3943 156.372 18.7313 157.434 19.4054C158.497 20.0535 159.34 20.922 159.962 22.0109C160.61 23.0997 160.934 24.3182 160.934 25.6663C160.934 25.8383 160.929 26.0081 160.918 26.1758C160.933 26.1192 160.947 26.0634 160.961 26.0085L160.86 34.6846C160.872 34.6729 160.884 34.6612 160.895 34.6495V36.8661C160.895 39.1994 160.157 41.0919 158.679 42.5437C157.227 44.0215 155.244 44.7603 152.729 44.7603C151.044 44.7603 149.54 44.3974 148.218 43.6715C146.896 42.9715 145.833 42.0641 145.029 40.9493L143.63 46.6659C144.796 47.5733 146.157 48.2862 147.713 48.8047Z" fill="white"/>
<path d="M174.792 8.89831C175.091 8.67226 175.091 8.22327 174.792 7.99719L170.78 4.96137C170.408 4.67976 169.874 4.94522 169.874 5.4119L169.874 11.4827C169.874 11.9494 170.408 12.2148 170.78 11.9333L174.792 8.89831Z" fill="white"/>
<path d="M138.215 7.99598C138.514 8.22203 138.514 8.67101 138.215 8.8971L134.203 11.9329C133.831 12.2145 133.297 11.9491 133.297 11.4824L133.297 5.41156C133.297 4.9449 133.831 4.67944 134.203 4.96098L138.215 7.99598Z" fill="white"/>
<path fill-rule="evenodd" clip-rule="evenodd" d="M63.8086 36.1957C65.5708 37.2841 67.5273 37.8283 69.6781 37.8283C71.233 37.8283 72.6712 37.5433 73.9928 36.9732C74.0093 36.966 74.0258 36.9589 74.0423 36.9517C74.8266 35.171 75.7911 31.9488 76.5591 29.1491C76.5212 29.218 76.4821 29.2864 76.4417 29.3542C75.8197 30.4427 74.9775 31.3108 73.9151 31.9587C72.8526 32.6065 71.6606 32.9305 70.3389 32.9305C69.0173 32.9305 67.8253 32.6065 66.7628 31.9587C65.7003 31.3108 64.8452 30.4427 64.1973 29.3542C63.5754 28.2399 63.2644 27.0219 63.2644 25.7003C63.2644 24.3527 63.5754 23.1347 64.1973 22.0463C64.8452 20.9579 65.7003 20.0897 66.7628 19.4419C67.8512 18.7681 69.0432 18.4312 70.3389 18.4312C71.6606 18.4312 72.8526 18.7681 73.9151 19.4419C74.9775 20.0897 75.8197 20.9579 76.4417 22.0463C77.0895 23.1347 77.4135 24.3527 77.4135 25.7003C77.4135 25.7745 77.4125 25.8482 77.4105 25.9216C77.4119 25.9161 77.4133 25.9105 77.4147 25.905L77.473 37.3619H82.2723V14.0861C82.0511 14.0861 81.8155 14.0792 81.5717 14.0721C80.3977 14.0379 79.0361 13.9981 78.1997 14.6951C77.7203 15.0946 77.4135 15.7362 77.4135 16.7597C76.4546 15.749 75.3144 14.9716 73.9928 14.4274C72.6712 13.8573 71.233 13.5722 69.6781 13.5722C67.5273 13.5722 65.5708 14.1164 63.8086 15.2048C62.0465 16.2932 60.6342 17.7574 59.5717 19.5974C58.5351 21.4373 58.0168 23.4716 58.0168 25.7003C58.0168 27.9289 58.5351 29.9632 59.5717 31.8032C60.6342 33.6172 62.0465 35.0814 63.8086 36.1957Z" fill="white"/>
<path d="M88.9165 37.3835V18.5269H82.9955V14.0524H86.5612H89.0333V6.34387H94.2889V14.0524C94.2889 14.0524 95.8787 14.0524 96.8973 14.0524C99.9274 14.0524 99.5057 18.5269 99.5057 18.5269H94.4057V37.3835H88.9165Z" fill="white"/>
</svg>
